<svg xmlns="http://www.w3.org/2000/svg" width="124" height="124" viewBox="0 0 124 124">
  <g id="icon_museum_1" transform="translate(-1100.555 -766)">
    <path id="合体_32" data-name="合体 32" d="M1.951,57.984A1.95,1.95,0,0,1,.159,55.268L12.91,25.433A7.8,7.8,0,0,1,20.08,20.7h3.249a9.97,9.97,0,0,1,6.427,2.345L42.709,33.953a.626.626,0,0,0,.881-.077L52.341,23.42a2.387,2.387,0,0,1,3.794,2.889L45.919,41.094a3.739,3.739,0,0,1-4.4,1.372L29.671,37.985a.46.46,0,0,0-.6.279L22.606,56.679a1.95,1.95,0,0,1-1.839,1.3Zm29.2-35.8,5.4-5.4A2.072,2.072,0,0,1,39.735,19.4L35.44,25.792ZM44.8,19.667A1.764,1.764,0,0,1,43.035,17.9V2.859A1.766,1.766,0,0,1,44.8,1.094H83.936A1.765,1.765,0,0,1,85.7,2.859V17.9a1.763,1.763,0,0,1-1.763,1.763Zm.141-15.749v13.1a.785.785,0,0,0,.785.784H83.3a.784.784,0,0,0,.785-.784v-6.8a.786.786,0,0,0-.785-.786H61.056a.785.785,0,0,1-.785-.785V3.918a.785.785,0,0,0-.786-.786H45.726A.785.785,0,0,0,44.941,3.918ZM25.024,17.489a8.762,8.762,0,1,1,.568.018C25.4,17.507,25.214,17.5,25.024,17.489Zm34.06-.985a2.165,2.165,0,0,1-2.047-2.857,2.214,2.214,0,0,1,2.137-1.457h7.694a2.163,2.163,0,0,1,2.045,2.859A2.2,2.2,0,0,1,66.778,16.5Zm-.557-2.377a.623.623,0,0,0,.587.823h2.119a.635.635,0,0,0,.616-.419.621.621,0,0,0-.588-.82H59.143A.641.641,0,0,0,58.527,14.126Zm5.578,0a.62.62,0,0,0,.587.82h2.119a.63.63,0,0,0,.611-.417.62.62,0,0,0-.585-.82H64.719A.632.632,0,0,0,64.105,14.128Zm14.49,2a1.8,1.8,0,1,1,.409.045A1.886,1.886,0,0,1,78.6,16.128Zm-5.653,0a1.8,1.8,0,1,1,.409.045A1.885,1.885,0,0,1,72.942,16.128Zm-23.416-.363a.2.2,0,0,1-.2-.2v-2a.2.2,0,0,0-.2-.205h-2a.2.2,0,0,1-.2-.2v-1.96a.2.2,0,0,1,.2-.2h2a.2.2,0,0,0,.2-.2v-2a.2.2,0,0,1,.2-.2h1.96a.2.2,0,0,1,.2.2v2a.2.2,0,0,0,.205.2h2a.2.2,0,0,1,.2.2v1.911a.245.245,0,0,1-.245.245H51.887a.2.2,0,0,0-.205.205v2a.2.2,0,0,1-.2.2Z" transform="translate(1119.584 802.531)" fill="#76738a"/>
    <rect id="長方形_9764" data-name="長方形 9764" width="124" height="124" transform="translate(1100.555 766)" fill="none"/>
  </g>
</svg>
