<svg xmlns="http://www.w3.org/2000/svg" width="124" height="124" viewBox="0 0 124 124">
  <g id="icon_workshop" transform="translate(-607.291 -653)">
    <path id="合体_25" data-name="合体 25" d="M76.147,43.959l-5.864-20.2a4.414,4.414,0,0,0-4.224-3.175,4.359,4.359,0,0,0-3.1,1.283L54.493,30.3a3.093,3.093,0,0,1-4.31.061l-4.834-4.548a1.551,1.551,0,0,1,2.126-2.259L52.306,28.1l8.462-8.426a7.46,7.46,0,0,1,5.29-2.185,7.539,7.539,0,0,1,7.2,5.409l5.862,20.2a1.548,1.548,0,0,1-1.057,1.92,1.548,1.548,0,0,1-1.921-1.057Zm-14.14-.029L58.582,31.24a.174.174,0,0,1,.041-.152L60.9,28.82a.154.154,0,0,1,.256.07l3.817,14.157a1.611,1.611,0,0,1-.712,1.831,1.564,1.564,0,0,1-.763.2A1.549,1.549,0,0,1,62.006,43.93Zm-47.087.948a1.617,1.617,0,0,1-.712-1.831L18.024,28.89a.158.158,0,0,1,.261-.07l2.28,2.268a.158.158,0,0,1,.038.152l-3.42,12.69a1.551,1.551,0,0,1-1.5,1.148A1.577,1.577,0,0,1,14.919,44.878Zm-13.8.138A1.547,1.547,0,0,1,.063,43.1L5.922,22.9a7.542,7.542,0,0,1,7.2-5.409,7.463,7.463,0,0,1,5.291,2.185L26.878,28.1,31.71,23.55a1.551,1.551,0,0,1,2.126,2.259L29,30.357a3.093,3.093,0,0,1-4.31-.061l-8.465-8.425a4.352,4.352,0,0,0-3.1-1.283A4.421,4.421,0,0,0,8.9,23.763l-5.862,20.2A1.548,1.548,0,0,1,1.55,45.078,1.582,1.582,0,0,1,1.117,45.016ZM28.381,20.94a1.551,1.551,0,0,1-1.548-1.552V4.078a1.547,1.547,0,0,1,1.548-1.549H50.8a1.548,1.548,0,0,1,1.552,1.549V19.387A1.552,1.552,0,0,1,50.8,20.94Zm1.549-3.1H49.254V5.626H29.93Zm27.9-10.811a7.027,7.027,0,1,1,7.027,7.027A7.038,7.038,0,0,1,57.831,7.027Zm3.1,0A3.926,3.926,0,1,0,64.858,3.1,3.93,3.93,0,0,0,60.932,7.027ZM7.3,7.027a7.025,7.025,0,1,1,7.023,7.027A7.033,7.033,0,0,1,7.3,7.027Zm3.1,0A3.926,3.926,0,1,0,14.326,3.1,3.93,3.93,0,0,0,10.4,7.027Z" transform="translate(629.704 692.46)" fill="#76738a"/>
    <rect id="長方形_9756" data-name="長方形 9756" width="124" height="124" transform="translate(607.291 653)" fill="none"/>
  </g>
</svg>
