<svg xmlns="http://www.w3.org/2000/svg" width="124" height="124" viewBox="0 0 124 124">
  <g id="icon_museum_4" transform="translate(-1702 -113)">
    <path id="合体_29" data-name="合体 29" d="M30.733,75.811a2.247,2.247,0,0,1-2.247-2.249V51.572a.376.376,0,0,0-.518-.346l-9.133,3.747a6,6,0,0,1-6.215-1.029L3.143,45.68a1.956,1.956,0,0,1,2.418-3.069l8.646,6.132a1.5,1.5,0,0,0,1.617.075L28.6,41.437a22.47,22.47,0,0,1,11.247-3.015h2.481a22.46,22.46,0,0,1,6.991,1.114l12.542,4.1a1.5,1.5,0,0,0,1.341-.208L73.9,35.74a1.955,1.955,0,0,1,2.611.295l.126.144a1.957,1.957,0,0,1-.1,2.694l-10,9.743a5.991,5.991,0,0,1-4.239,1.7l-10.677-.1a.375.375,0,0,0-.378.375V73.563A2.248,2.248,0,0,1,49,75.811Zm.251-49.2a8.753,8.753,0,1,1,8.753,8.752A8.754,8.754,0,0,1,30.984,26.607ZM0,25.04a5.471,5.471,0,1,1,5.47,5.47A5.471,5.471,0,0,1,0,25.04ZM68.658,5.47a5.471,5.471,0,1,1,5.47,5.47A5.47,5.47,0,0,1,68.658,5.47Z" transform="translate(1724.2 137.095)" fill="#76738a"/>
    <rect id="長方形_9765" data-name="長方形 9765" width="124" height="124" transform="translate(1702 113)" fill="none"/>
  </g>
</svg>
