<svg xmlns="http://www.w3.org/2000/svg" width="124" height="124" viewBox="0 0 124 124">
  <g id="icon_museum_2" transform="translate(-1150.891 -19)">
    <path id="合体_28" data-name="合体 28" d="M1.951,75.98a1.948,1.948,0,0,1-1.8-2.691l12.31-29.947a7.474,7.474,0,0,1,6.913-4.633h4.015a9.349,9.349,0,0,1,5.463,1.76L43.882,51.283a.619.619,0,0,0,.643.051l9.263-4.661a1.983,1.983,0,0,1,2.059,3.375L45.6,57.515a3.738,3.738,0,0,1-3.288.559L29.809,54.29a.623.623,0,0,0-.773.406L22.626,74.628A1.948,1.948,0,0,1,20.77,75.98ZM49.384,39.925l-5.5-1.694a3.43,3.43,0,0,0,.159-2.216l4.3,1.322-2.448-6.061a1.11,1.11,0,0,1-.005-.863A1.084,1.084,0,0,1,47.2,29.8l6.342,1.958-2.479-6.147a1.087,1.087,0,0,1,.5-1.362,1.107,1.107,0,0,1,.858-.069L58.7,26.129l-2.484-6.155a1.086,1.086,0,0,1,.5-1.362,1.106,1.106,0,0,1,.858-.068l6.186,1.9-3.93-9.76a.5.5,0,0,1,.276-.648l3.376-1.36.43-1.515.661-2.325a.166.166,0,0,1,.311-.021l1.593,3.657,1.592,3.657a.166.166,0,0,1-.228.215l-3.379-1.728-2,.806,3.962,9.842,10.25,3.15.628-2.042-1.955-3.134a.166.166,0,0,1,.194-.245l3.779,1.277L83.1,21.543a.167.167,0,0,1,.006.313l-2.261.855-1.564.591-1.025,3.341a.5.5,0,0,1-.623.329L67.464,23.847l2.486,6.179a1.084,1.084,0,0,1-1.325,1.439l-6.211-1.922,2.478,6.139a1.083,1.083,0,0,1-1.324,1.439l-6.314-1.949,2.452,6.081a1.085,1.085,0,0,1-1.324,1.441l-6.332-1.949,1.728,4.279a3.523,3.523,0,0,0-.691.257l-1.279.645Zm1.623-1.767,5.84,1.8-2.259-5.6-5.848-1.805Zm5.2-5.573,5.821,1.8-2.285-5.663-5.821-1.8Zm5.16-5.632,5.722,1.77L64.8,23.029,59.077,21.27ZM31.5,40.459l8.21-5.186A1.912,1.912,0,0,1,42.026,38.3l-5.944,5.454ZM15.6,26.809a8.753,8.753,0,1,1,8.752,8.753A8.752,8.752,0,0,1,15.6,26.809ZM75.471,5.836A5.6,5.6,0,1,1,81.3,11.2c-.08,0-.16,0-.239,0A5.6,5.6,0,0,1,75.471,5.836Z" transform="translate(1169.557 42.382)" fill="#76738a"/>
    <rect id="長方形_9763" data-name="長方形 9763" width="124" height="124" transform="translate(1150.891 19)" fill="none"/>
  </g>
</svg>
