<svg xmlns="http://www.w3.org/2000/svg" width="124" height="124" viewBox="0 0 124 124">
  <g id="icon_museum_6" transform="translate(-619.109 -743)">
    <path id="合体_31" data-name="合体 31" d="M40.427,61.382A1.969,1.969,0,0,1,38.462,59.3l1.559-26.308L31,34.153l-1.576.2a4.349,4.349,0,0,1-2.554-.451L8.81,24.564a1.884,1.884,0,0,1-.841-2.469c.01-.022.018-.043.029-.065a1.992,1.992,0,0,1,.123-.2c.01-.014.02-.029.031-.043.046-.062.094-.121.145-.177l.023-.022a1.651,1.651,0,0,1,.15-.139l.035-.03a2.03,2.03,0,0,1,.183-.128l.039-.022c.057-.034.118-.064.179-.093a.248.248,0,0,1,.032-.013,1.583,1.583,0,0,1,.209-.075l.048-.013a2.1,2.1,0,0,1,.217-.046H9.42a1.523,1.523,0,0,1,.227-.016l.028,0,.023,0a1.616,1.616,0,0,1,.248.019l.042.006a1.665,1.665,0,0,1,.26.062l16.976,5.414a2.191,2.191,0,0,0,1.309,0l3.2-1,1.533-.479,10.21-3.186a24.709,24.709,0,0,1,7.367-1.124,7.254,7.254,0,0,1,7.205,6.4L61.84,59.181a1.969,1.969,0,0,1-1.957,2.2ZM34.164,38.013a5.061,5.061,0,0,1-2.7-2.449l7-.9-.185,3.156a5.091,5.091,0,0,1-4.109.2ZM32.617,17.338h4.459l.307,4.883-5.48,1.71ZM6.1,15.881H3.6v-.006l-1.39,0L0,8.509H1.9V6.793h8.178a1.791,1.791,0,0,1,1.788,1.717h24.68c0,.09-.006.177-.006.267a10.2,10.2,0,0,0,2.878,7.1H10.007l1.2,3.986-.513-.163a3.339,3.339,0,0,0-3.233.684Zm34.375-.992a.09.09,0,0,0-.016-.016c-.107-.112-.212-.227-.313-.344l-.035-.04c-.1-.117-.2-.237-.292-.358l-.019-.024a8.689,8.689,0,0,1-.564-.833.028.028,0,0,1-.006-.01c-.08-.133-.155-.268-.227-.406-.016-.029-.032-.059-.046-.09q-.086-.17-.168-.345c-.016-.037-.034-.073-.05-.112-.051-.116-.1-.233-.145-.352-.015-.035-.029-.069-.042-.1a9.263,9.263,0,0,1-.292-.937c-.009-.04-.018-.08-.027-.12-.027-.118-.054-.237-.077-.356-.011-.054-.021-.109-.031-.165-.019-.109-.035-.218-.049-.326-.008-.058-.016-.117-.023-.175-.012-.115-.022-.228-.032-.345,0-.051-.008-.1-.011-.155C38,9.112,38,8.944,38,8.776c0-.089,0-.177.006-.267a8.773,8.773,0,0,1,17.537,0c0,.08.006.158.006.237,0,.011,0,.021,0,.03,0,.168-.006.336-.016.5,0,.051-.008.1-.013.157-.008.115-.018.229-.03.342-.006.059-.015.118-.022.176-.016.11-.032.217-.051.326-.01.054-.018.11-.029.166-.023.118-.049.237-.076.355-.01.04-.018.08-.029.12a8.573,8.573,0,0,1-.292.937c-.013.034-.025.069-.04.1-.046.118-.094.235-.145.352l-.051.114c-.053.115-.108.23-.167.342-.016.031-.03.063-.046.093-.074.136-.147.27-.226.4l-.008.011a8.609,8.609,0,0,1-.565.833l-.019.026q-.142.182-.291.355l-.035.042c-.1.117-.207.232-.313.342a.2.2,0,0,1-.018.018,8.748,8.748,0,0,1-1.145.991h0a8.768,8.768,0,0,1-11.441-.992Zm13.65.992a10.2,10.2,0,0,0,2.877-7.1c0-.089,0-.177-.006-.267h4.838V12.2l-4.487,3.686ZM24.15,6.713V4.251H33.9V6.713Z" transform="translate(645.737 777.941)" fill="#76738a"/>
    <rect id="長方形_9761" data-name="長方形 9761" width="124" height="124" transform="translate(619.109 743)" fill="none"/>
  </g>
</svg>
