<svg id="icon_museum_7" xmlns="http://www.w3.org/2000/svg" width="124" height="124" viewBox="0 0 124 124">
  <path id="合体_26" data-name="合体 26" d="M50.955,82.942.746,70.983a.97.97,0,0,1-.079-1.866l4.28-1.4-4.2-1A.97.97,0,0,1,.667,64.85l34.54-11.317a7.783,7.783,0,0,1,4.214-.175l8.943,2.13v2.726l-9.556-2.275a5.1,5.1,0,0,0-2.773.114L7.158,65.514,52.973,76.427l30.245-9.911-28.464-6.78.289-2.657L89.63,65.317a.97.97,0,0,1,.079,1.865l-4.281,1.4,4.2,1a.969.969,0,0,1,.079,1.864L55.169,82.767a7.755,7.755,0,0,1-4.214.175Zm-.111-12.383c0-.865,1.514-1.565,3.383-1.565s3.382.7,3.382,1.565-1.515,1.565-3.382,1.565S50.844,71.423,50.844,70.559Zm-9.54-2.2c0-.865,1.516-1.565,3.383-1.565s3.382.7,3.382,1.565-1.514,1.566-3.382,1.566S41.3,69.226,41.3,68.362Zm19.583-.934c0-.865,1.514-1.565,3.382-1.565s3.381.7,3.381,1.565-1.514,1.565-3.381,1.565S60.887,68.292,60.887,67.428ZM31.766,66.165c0-.864,1.514-1.565,3.383-1.565s3.381.7,3.381,1.565-1.514,1.565-3.381,1.565S31.766,67.03,31.766,66.165Zm19.581-.935c0-.864,1.514-1.565,3.382-1.565s3.383.7,3.383,1.565S56.6,66.8,54.729,66.8,51.347,66.1,51.347,65.23ZM22.226,63.968c0-.865,1.516-1.565,3.383-1.565s3.383.7,3.383,1.565-1.514,1.565-3.383,1.565S22.226,64.832,22.226,63.968Zm19.581-.934c0-.864,1.515-1.565,3.382-1.565s3.385.7,3.385,1.565S47.058,64.6,45.189,64.6,41.807,63.9,41.807,63.034Zm-9.539-2.2c0-.865,1.514-1.566,3.383-1.566s3.383.7,3.383,1.566S37.52,62.4,35.651,62.4,32.268,61.7,32.268,60.838ZM49.82,59.07l.034-37.98-3.979,2.45a4.376,4.376,0,0,1-3.654.433l-6.893-2.252A1.271,1.271,0,0,1,36,19.272l6.983,1.533a.732.732,0,0,0,.61-.143l7.655-6.1a7.292,7.292,0,0,1,8.8-.22L67.925,20a.733.733,0,0,0,.424.136l7.278.016a1.332,1.332,0,0,1,.111,2.659l-7.163.617A4.364,4.364,0,0,1,66.287,23L61.87,20.857,62.5,45.235a.727.727,0,0,0,.288.562l6.947,5.276A1.62,1.62,0,0,1,67.9,53.738L59.98,48.806A4.38,4.38,0,0,1,58,45.959l-1.653-8.17a.364.364,0,0,0-.719.034l-2.29,21.437a1.765,1.765,0,0,1-3.521-.189Zm.664-54a5.07,5.07,0,1,1,5.07,5.07A5.071,5.071,0,0,1,50.484,5.07Z" transform="translate(16.812 20.788)" fill="#76738a"/>
  <rect id="長方形_9758" data-name="長方形 9758" width="124" height="124" fill="none"/>
</svg>
