<svg xmlns="http://www.w3.org/2000/svg" width="124" height="124" viewBox="0 0 124 124">
  <g id="icon_museum_5" transform="translate(-119 -721)">
    <path id="合体_30" data-name="合体 30" d="M58.134,62.6a1.95,1.95,0,0,1-1.949-1.949V44.216a15.6,15.6,0,0,1-4.775,3.608,24.172,24.172,0,0,1-11.527,2.707,24.185,24.185,0,0,1-11.528-2.707,15.636,15.636,0,0,1-4.774-3.608V60.648A1.949,1.949,0,0,1,21.63,62.6H1.95a1.95,1.95,0,0,1-1.9-2.371L6.4,31.5a7.477,7.477,0,0,1,7.619-5.947c1.447.059,2.8.142,3.622.264a7.554,7.554,0,0,1,5.035,2.324,7.637,7.637,0,0,1,1.423,2.09A52.74,52.74,0,0,0,29.6,39.5c3.047,3.8,6.219,6.437,10.287,6.437S47.124,43.3,50.171,39.5a52.776,52.776,0,0,0,5.5-9.263,7.653,7.653,0,0,1,1.425-2.09,7.548,7.548,0,0,1,5.033-2.324c.836-.123,2.218-.208,3.689-.268a7.476,7.476,0,0,1,7.6,5.87L79.724,60.23a1.949,1.949,0,0,1-1.9,2.367ZM54.573,13.534a8.753,8.753,0,1,1,8.752,8.753A8.753,8.753,0,0,1,54.573,13.534Zm-46.885,0a8.753,8.753,0,1,1,8.753,8.753A8.753,8.753,0,0,1,7.687,13.534Zm35.846-.175.524-2.465A.75.75,0,0,0,43.479,10a.755.755,0,0,0-.895.579l-.542,2.55a18.686,18.686,0,0,0-9.236,1.245L27.832,2.366a31.869,31.869,0,0,1,24.1,0l-4.975,12.01A18.932,18.932,0,0,0,43.533,13.36Zm1.728-5.126.672-1.621a15.709,15.709,0,0,0-12.1,0l.67,1.621a13.97,13.97,0,0,1,10.758,0Z" transform="translate(141.115 752.431)" fill="#76738a"/>
    <rect id="長方形_9762" data-name="長方形 9762" width="124" height="124" transform="translate(119 721)" fill="none"/>
  </g>
</svg>
