<svg xmlns="http://www.w3.org/2000/svg" width="124" height="124" viewBox="0 0 124 124">
  <g id="icon_museum_8" transform="translate(-1702 -721)">
    <path id="合体_33" data-name="合体 33" d="M59.383,80.548l-2.79-15.334a1.094,1.094,0,0,0-2.153,0L51.649,80.548a1.432,1.432,0,0,1-2.834-.4L50.4,64.24q.358-3.6.359-7.218V52.405a.721.721,0,0,0-.173-.471l-1.946-2.3a14.588,14.588,0,0,1-3.441-8.9l-.122-3.347a.783.783,0,0,1,1.557-.144l.439,2.958a10.213,10.213,0,0,0,3.308,6.127l.289.256a7.3,7.3,0,0,0,9.7,0l.287-.256a10.206,10.206,0,0,0,3.31-6.127l.438-2.958a.783.783,0,0,1,1.556.144l-.12,3.347a14.6,14.6,0,0,1-3.442,8.9l-1.948,2.3a.73.73,0,0,0-.171.471v4.617q0,3.617.357,7.218l1.583,15.911a1.433,1.433,0,0,1-2.835.4Zm-33.917,0L22.675,65.214a1.094,1.094,0,0,0-2.153,0l-2.79,15.334a1.433,1.433,0,0,1-2.836-.4L16.479,64.24q.358-3.6.357-7.218V52.405a.732.732,0,0,0-.171-.471l-1.949-2.3a14.6,14.6,0,0,1-3.439-8.9l-.122-3.347a.783.783,0,0,1,1.557-.144L13.15,40.2a10.213,10.213,0,0,0,3.31,6.127l.289.256a7.293,7.293,0,0,0,9.7,0l.288-.256a10.213,10.213,0,0,0,3.31-6.127l.438-2.958a.783.783,0,0,1,1.557.144l-.122,3.347a14.588,14.588,0,0,1-3.441,8.9l-1.947,2.3a.723.723,0,0,0-.173.471v4.617q0,3.617.359,7.218L28.3,80.151a1.432,1.432,0,0,1-2.834.4ZM52.439,43.265a3.078,3.078,0,1,1,3.078,3.078A3.078,3.078,0,0,1,52.439,43.265Zm-33.917,0A3.077,3.077,0,1,1,21.6,46.343,3.077,3.077,0,0,1,18.522,43.265ZM3.188,33.571A3.189,3.189,0,0,1,0,30.382V3.188A3.188,3.188,0,0,1,3.188,0H73.927a3.188,3.188,0,0,1,3.188,3.188V30.382a3.188,3.188,0,0,1-3.188,3.188ZM3.445,5.1V28.782A1.419,1.419,0,0,0,4.864,30.2H72.783a1.42,1.42,0,0,0,1.419-1.42V16.489a1.419,1.419,0,0,0-1.419-1.418H32.573a1.42,1.42,0,0,1-1.419-1.42V5.1a1.419,1.419,0,0,0-1.419-1.419H4.864A1.418,1.418,0,0,0,3.445,5.1Zm25.563,22.75a3.912,3.912,0,0,1-3.7-5.167,4,4,0,0,1,3.859-2.631H43.078a3.909,3.909,0,0,1,3.7,5.167,3.979,3.979,0,0,1-3.861,2.631ZM28,23.554a1.125,1.125,0,0,0,1.062,1.487h3.829a1.148,1.148,0,0,0,1.113-.756,1.12,1.12,0,0,0-1.062-1.48H29.114A1.155,1.155,0,0,0,28,23.554Zm10.082,0a1.121,1.121,0,0,0,1.061,1.484h3.831a1.145,1.145,0,0,0,1.107-.755A1.122,1.122,0,0,0,43.021,22.8H39.191A1.143,1.143,0,0,0,38.084,23.556Zm26.191,3.616a3.247,3.247,0,1,1,.74.082A3.428,3.428,0,0,1,64.275,27.172Zm-10.22,0a3.206,3.206,0,0,1-2.41-2.41A3.235,3.235,0,1,1,54.8,27.254,3.428,3.428,0,0,1,54.056,27.172Zm-42.323-.654a.354.354,0,0,1-.354-.354V22.553a.369.369,0,0,0-.37-.37H7.4a.354.354,0,0,1-.354-.354V18.286a.354.354,0,0,1,.354-.354h3.611a.37.37,0,0,0,.37-.37V13.949a.354.354,0,0,1,.354-.354h3.543a.354.354,0,0,1,.354.354v3.613a.37.37,0,0,0,.37.37h3.611a.354.354,0,0,1,.354.354v3.451a.446.446,0,0,1-.446.445H16a.369.369,0,0,0-.37.37v3.611a.354.354,0,0,1-.354.354Z" transform="translate(1725.442 745.971)" fill="#76738a"/>
    <rect id="長方形_9766" data-name="長方形 9766" width="124" height="124" transform="translate(1702 721)" fill="none"/>
  </g>
</svg>
