<svg xmlns="http://www.w3.org/2000/svg" width="124" height="124" viewBox="0 0 124 124">
  <g id="icon_museum_3" transform="translate(-618.664 -19)">
    <path id="合体_27" data-name="合体 27" d="M33.655,77.882a1.95,1.95,0,0,1-1.9-1.5l-4.6-19.526-8.453,3.914a3.9,3.9,0,0,1-3.647-.2L.9,52.06a1.869,1.869,0,0,1,.947-3.469h.017a1.858,1.858,0,0,1,.663.123L14.9,53.427a1.948,1.948,0,0,0,1.948-.329L29.2,42.708a7.812,7.812,0,0,1,4.592-1.819l4.91-.268a7.8,7.8,0,0,1,7.9,5.562l8.685,29.195a1.949,1.949,0,0,1-1.868,2.505ZM7.917,46.376l1.76-3.246L21.33,47.42,17.8,50.391Zm-4.865.975a3.355,3.355,0,0,0-.685-.179L21.23,2.392a3.909,3.909,0,1,1,7.038,3.38L5.27,48.2ZM24.78,28.628a8.753,8.753,0,1,1,8.753,8.753A8.752,8.752,0,0,1,24.78,28.628Z" transform="translate(651.889 40.965)" fill="#76738a"/>
    <rect id="長方形_9759" data-name="長方形 9759" width="124" height="124" transform="translate(618.664 19)" fill="none"/>
  </g>
</svg>
